<svg width="25" height="25" viewBox="0 0 25 25" fill="transparent" xmlns="http://www.w3.org/2000/svg">
<rect width="25" height="25" fill="white"/>
<g id="Home" clip-path="url(#clip0_0_1)" filter="url(#filter0_b_0_1)">
<rect width="1440" height="5382" transform="translate(-187 -1318)" fill="url(#paint0_linear_0_1)"/>
<g id="Group 89">
<g id="fire 1" clip-path="url(#clip1_0_1)">
<g id="Group">
<g id="Group_2">
<path id="Vector" d="M21.8216 14.6372C21.5352 10.9087 19.7993 8.57221 18.2678 6.5104C16.8498 4.60161 15.625 2.95327 15.625 0.521725C15.625 0.326413 15.5156 0.147897 15.3422 0.0583953C15.1682 -0.0316437 14.9592 -0.0168976 14.801 0.0980438C12.501 1.74384 10.582 4.51772 9.91162 7.1644C9.44624 9.00703 9.38467 11.0785 9.37603 12.4466C7.252 11.993 6.77085 8.81582 6.76577 8.7812C6.74185 8.6164 6.64116 8.47299 6.49468 8.39468C6.34668 8.31738 6.17271 8.31176 6.02266 8.38603C5.91128 8.43994 3.28877 9.77246 3.13618 15.0928C3.12549 15.2698 3.125 15.4474 3.125 15.6249C3.125 20.7936 7.33081 24.9992 12.5 24.9992C12.5071 24.9997 12.5147 25.0007 12.5208 24.9992C12.5229 24.9992 12.5249 24.9992 12.5274 24.9992C17.6839 24.9844 21.875 20.7845 21.875 15.6249C21.875 15.3649 21.8216 14.6372 21.8216 14.6372ZM12.5 23.9576C10.7768 23.9576 9.375 22.4644 9.375 20.6289C9.375 20.5664 9.37451 20.5033 9.37905 20.426C9.3999 19.6519 9.54692 19.1235 9.70815 18.772C10.0103 19.421 10.5504 20.0176 11.4278 20.0176C11.7157 20.0176 11.9487 19.7846 11.9487 19.4968C11.9487 18.7553 11.964 17.8998 12.1486 17.1277C12.3129 16.4432 12.7055 15.7148 13.203 15.131C13.4242 15.8888 13.8556 16.5021 14.2767 17.1008C14.8794 17.9572 15.5025 18.8427 15.6119 20.3527C15.6185 20.4422 15.6251 20.5323 15.6251 20.6289C15.625 22.4644 14.2232 23.9576 12.5 23.9576Z" fill="white"/>
</g>
</g>
</g>
</g>
</g>
<defs>
<filter id="filter0_b_0_1" x="-201" y="-1332" width="1468" height="5410" filterUnits="userSpaceOnUse" color-interpolation-filters="sRGB">
<feFlood flood-opacity="0" result="BackgroundImageFix"/>
<feGaussianBlur in="BackgroundImageFix" stdDeviation="7"/>
<feComposite in2="SourceAlpha" operator="in" result="effect1_backgroundBlur_0_1"/>
<feBlend mode="normal" in="SourceGraphic" in2="effect1_backgroundBlur_0_1" result="shape"/>
</filter>
<linearGradient id="paint0_linear_0_1" x1="720" y1="-6.98909e-06" x2="283.507" y2="6991.94" gradientUnits="userSpaceOnUse">
<stop stop-color=""/>
<stop offset="1" stop-color=""/>
</linearGradient>
<clipPath id="clip0_0_1">
<rect width="1440" height="5382" fill="white" transform="translate(-187 -1318)"/>
</clipPath>
<clipPath id="clip1_0_1">
<rect width="25" height="25" fill="white"/>
</clipPath>
</defs>
</svg>
